<?xml version="1.0" standalone="no"?>
<!DOCTYPE svg PUBLIC "-//W3C//DTD SVG 20010904//EN"
 "http://www.w3.org/TR/2001/REC-SVG-20010904/DTD/svg10.dtd">
<svg version="1.0" xmlns="http://www.w3.org/2000/svg"
 width="736.000000pt" height="736.000000pt" viewBox="0 0 736.000000 736.000000"
 preserveAspectRatio="xMidYMid meet">
<metadata>
Created by potrace 1.16, written by Peter Selinger 2001-2019
</metadata>
<g transform="translate(0.000000,736.000000) scale(0.100000,-0.100000)"
fill="#153c70" stroke="none">
<path d="M5393 6171 c-39 -25 -74 -84 -107 -183 -34 -101 -35 -170 -1 -203 13
-14 34 -25 46 -25 18 0 21 -4 16 -28 -43 -215 -47 -416 -9 -488 32 -63 61 -70
302 -79 275 -9 361 7 432 82 36 38 42 55 74 233 44 250 36 387 -25 419 -16 9
-237 31 -308 31 -20 0 -23 5 -23 35 0 53 -24 103 -53 110 -15 4 -44 -2 -76
-16 -40 -17 -59 -20 -83 -13 -26 8 -33 16 -43 59 -21 81 -75 106 -142 66z
m614 -307 c56 -4 87 -12 95 -22 32 -38 -9 -444 -54 -534 -27 -56 -64 -70 -208
-79 -294 -19 -400 -6 -444 54 -31 43 -33 155 -5 337 12 83 26 150 29 150 4 0
11 -33 14 -72 8 -83 35 -151 64 -167 12 -6 35 -11 53 -11 46 0 125 83 164 172
23 54 34 68 54 70 32 4 37 23 13 44 -11 9 -18 23 -16 30 14 48 11 47 87 40 39
-3 109 -9 154 -12z M5836 5665 c-37 -7 -72 -19 -77 -26 -23 -37 -4 -42 91 -25
91 16 110 27 90 51 -14 17 -10 17 -104 0z M5762 5458 c-169 -11 -302 -46 -302
-78 0 -14 33 -12 125 6 44 9 134 19 200 22 112 7 120 8 123 28 4 28 -16 31
-146 22z M1489 5869 c-20 -12 -43 -34 -53 -49 -15 -26 -18 -27 -52 -17 -65 20
-168 -22 -199 -82 -11 -23 -23 -29 -60 -34 -76 -11 -134 -47 -160 -101 -5 -11
-36 -33 -68 -48 -62 -30 -97 -73 -97 -120 0 -15 -14 -43 -35 -68 -47 -56 -52
-92 -24 -187 39 -135 73 -184 139 -198 26 -6 28 -10 28 -48 -2 -79 56 -147
140 -166 24 -5 45 -11 46 -13 1 -1 37 -47 78 -100 81 -103 82 -106 98 -238 15
-122 13 -170 -5 -170 -19 0 -65 -40 -65 -57 0 -7 -26 -26 -58 -42 -152 -77
-351 -264 -467 -441 -200 -304 -335 -730 -361 -1140 -22 -350 153 -763 439
-1037 69 -67 94 -75 153 -53 15 6 29 9 31 6 2 -2 11 -34 18 -71 19 -87 49
-145 90 -174 50 -34 82 -23 97 33 l11 43 56 -57 c64 -65 115 -85 138 -54 7 10
13 44 13 76 0 32 2 58 5 58 2 0 21 -11 41 -25 64 -44 94 -29 94 45 0 26 -9 73
-20 105 -11 32 -17 61 -14 64 3 3 98 9 212 14 244 9 594 -4 904 -33 292 -28
328 -18 315 89 -3 25 -33 163 -66 306 -99 428 -150 739 -186 1135 -8 91 -17
189 -20 218 -3 28 -3 52 0 52 3 0 20 -7 38 -17 96 -49 271 -75 377 -55 242 46
462 244 664 602 36 63 82 152 102 198 l38 82 -22 29 -21 28 58 6 c95 8 193 68
239 146 23 39 27 57 27 118 -1 71 -1 71 28 77 16 3 45 22 64 41 26 26 44 35
68 35 l33 0 4 -347 c5 -389 8 -410 74 -474 34 -33 37 -34 132 -37 53 -2 250 1
437 6 310 8 344 11 387 30 25 11 52 30 58 43 17 31 7 151 -25 309 -59 289 -87
505 -109 821 -15 220 -24 250 -86 281 -43 22 -95 22 -222 3 -54 -8 -160 -19
-235 -26 -168 -13 -257 -30 -329 -63 -64 -30 -78 -55 -72 -138 2 -32 3 -58 2
-58 -1 0 -18 7 -38 15 -72 30 -111 -2 -124 -101 l-7 -59 -45 -5 c-25 -3 -50
-9 -56 -13 -7 -4 -25 0 -40 8 -58 30 -143 16 -223 -37 -25 -17 -41 -23 -38
-15 42 109 61 227 39 249 -21 21 -61 -2 -100 -57 l-40 -55 -6 44 c-13 83 -53
85 -111 6 -40 -54 -112 -202 -121 -249 l-6 -31 -26 20 c-54 43 -86 15 -132
-115 -138 -396 -282 -578 -488 -615 -147 -26 -302 27 -582 200 -161 100 -212
126 -272 141 -59 16 -88 42 -70 67 156 224 181 502 83 957 -16 77 -35 165 -42
196 -13 56 -12 57 17 88 77 82 65 218 -25 278 -39 26 -116 30 -166 9 -27 -11
-35 -10 -74 11 -54 28 -105 29 -152 2z m304 -290 c33 -15 42 -34 76 -174 73
-295 98 -568 67 -745 -20 -115 -84 -254 -145 -316 -124 -126 -306 -56 -491
186 -85 112 -172 250 -166 263 3 7 11 20 18 29 10 13 10 20 1 29 -9 9 -19 6
-43 -11 -36 -26 -100 -30 -125 -10 -29 24 -47 70 -40 101 9 39 61 99 86 99 20
0 39 35 39 72 0 40 122 240 185 303 70 70 97 83 283 141 140 43 212 52 255 33z
m3381 -424 c17 -17 18 -21 51 -335 34 -318 70 -589 105 -803 21 -124 27 -184
20 -196 -12 -23 -127 -30 -572 -33 -298 -3 -307 -2 -335 18 -47 35 -51 71 -52
417 l-1 317 29 0 c17 0 43 11 61 27 30 25 32 30 28 82 -2 33 -15 77 -30 108
l-27 52 50 36 c33 23 49 42 47 53 -6 31 -44 25 -88 -14 -39 -36 -41 -36 -60
-19 -29 26 -29 166 -1 194 32 32 109 49 351 75 129 14 249 27 265 29 78 10
144 7 159 -8z m-1573 -370 c-16 -92 -15 -115 9 -115 15 0 34 29 82 123 77 150
89 131 22 -39 -55 -141 -65 -190 -39 -200 13 -5 35 12 89 69 81 87 126 117
176 117 64 0 68 -15 15 -52 -149 -103 -215 -181 -215 -252 0 -70 65 -126 147
-126 54 0 96 29 134 94 19 31 38 56 43 56 4 0 6 -25 4 -55 -4 -48 -10 -61 -44
-96 -56 -58 -105 -80 -196 -88 l-78 -7 -86 104 c-47 56 -114 141 -149 187
l-63 84 14 55 c20 78 49 141 97 216 l42 64 3 -39 c2 -21 -1 -66 -7 -100z m409
-170 c0 -20 7 -50 16 -67 15 -29 15 -32 0 -40 -9 -5 -27 -31 -41 -58 -46 -91
-111 -115 -166 -61 -33 33 -35 50 -15 89 24 45 169 172 198 172 4 0 8 -16 8
-35z m-408 -311 l177 -212 -35 -66 c-20 -36 -38 -66 -40 -66 -14 0 -269 238
-347 323 l-89 97 28 82 c14 46 34 96 42 113 l15 29 36 -44 c20 -25 116 -140
213 -256z m-2081 -34 c52 -24 77 -30 133 -30 l69 0 -25 -32 c-39 -53 -119 -88
-197 -88 -68 0 -134 22 -159 53 -8 10 -15 53 -17 119 -2 57 -7 117 -11 132 -6
24 5 16 68 -47 52 -54 93 -85 139 -107z m357 -97 c84 -128 116 -223 117 -343
0 -71 -1 -75 -23 -78 -33 -5 -124 29 -118 44 21 54 30 113 30 199 1 102 0 106
-61 243 -14 32 9 5 55 -65z m-70 -16 c29 -76 36 -152 22 -243 -17 -110 -46
-159 -83 -137 -101 59 -438 323 -413 323 4 0 35 -9 69 -21 122 -42 256 -7 333
86 21 25 41 45 45 45 4 0 16 -24 27 -53z m-488 -113 c53 -54 183 -158 298
-238 45 -32 82 -59 82 -61 0 -10 -105 -102 -130 -114 -27 -13 -32 -12 -71 15
-98 67 -191 231 -228 402 -5 23 -6 42 -2 42 4 0 27 -21 51 -46z m-88 -2163
c13 -38 16 -57 8 -71 -6 -11 -61 -65 -124 -122 -115 -104 -223 -178 -261 -178
-19 0 -114 85 -104 93 127 107 441 338 453 334 6 -2 18 -27 28 -56z m119 -140
c30 -10 67 -25 82 -32 l29 -13 -34 -31 c-70 -62 -74 -100 -21 -221 39 -90 37
-118 -4 -69 -32 37 -82 75 -100 75 -26 0 -32 -35 -17 -114 8 -43 14 -82 12
-88 -4 -12 -30 15 -108 110 -73 90 -100 82 -100 -30 0 -38 -4 -68 -10 -68 -17
0 -58 72 -69 120 -6 25 -10 65 -10 90 0 43 2 47 64 94 35 28 97 83 137 123 40
40 78 73 84 73 6 0 35 -8 65 -19z M1715 5315 c-102 -29 -110 -40 -73 -121 12
-27 45 -127 73 -223 51 -174 70 -210 96 -184 10 10 3 46 -31 160 -24 81 -54
176 -66 211 -13 34 -24 68 -24 75 0 7 30 24 67 37 119 44 85 79 -42 45z M1455
5235 c-103 -28 -130 -40 -133 -59 -4 -17 0 -18 38 -12 74 12 175 50 175 66 0
20 -21 21 -80 5z M1775 5176 c-16 -12 -17 -17 -8 -27 17 -17 88 0 88 21 0 21
-55 25 -80 6z M1471 5102 c-44 -24 -60 -47 -44 -63 10 -10 17 -8 33 6 11 10
41 24 67 30 58 15 65 39 13 43 -20 1 -50 -5 -69 -16z M1022 4958 c-17 -17 -15
-54 4 -72 21 -22 37 -11 23 16 -6 11 -8 31 -5 44 7 26 -3 31 -22 12z M1550
4581 c0 -50 110 -97 156 -66 37 24 29 35 -25 35 -38 0 -56 6 -79 25 -36 30
-52 32 -52 6z M1610 4475 c0 -16 43 -31 60 -20 15 9 2 21 -32 29 -21 5 -28 3
-28 -9z M4885 4869 c-58 -19 -210 -51 -270 -58 -52 -5 -60 -9 -63 -28 -3 -22
0 -23 57 -23 32 0 113 11 178 25 191 41 195 43 191 68 -3 25 -43 32 -93 16z
M4905 4639 c-65 -13 -113 -17 -170 -13 -67 5 -86 2 -115 -14 -21 -11 -36 -28
-38 -42 -6 -37 13 -45 46 -20 29 21 38 22 129 17 57 -4 115 -3 138 3 22 6 80
17 129 25 94 15 112 24 103 49 -9 22 -104 19 -222 -5z M5050 4404 c-8 -2 -94
-8 -190 -14 -195 -12 -269 -25 -277 -47 -13 -34 12 -36 209 -19 106 9 220 16
253 16 74 0 102 7 110 28 12 31 -43 50 -105 36z M4905 4179 c-244 -32 -365
-65 -365 -100 0 -24 30 -25 109 -4 75 19 286 52 388 61 84 7 111 20 99 49 -7
19 -49 18 -231 -6z M4147 5328 c-6 -18 15 -66 57 -132 37 -58 52 -68 63 -40 6
17 -39 121 -70 161 -20 25 -43 30 -50 11z M3873 5249 c-6 -6 -9 -18 -6 -26 7
-18 101 -82 180 -121 53 -27 63 -29 73 -17 17 21 6 32 -103 103 -102 67 -128
77 -144 61z M6213 5065 c-109 -47 -228 -236 -195 -309 14 -31 63 -42 118 -27
21 6 39 9 41 8 3 -4 -43 -125 -160 -417 -117 -292 -162 -453 -146 -514 19 -71
80 -100 266 -126 76 -11 183 -29 238 -40 55 -11 154 -23 221 -27 l120 -6 38
33 c64 57 107 155 190 442 75 256 99 381 100 508 1 161 -21 184 -165 170 -46
-5 -132 -11 -191 -13 l-107 -5 6 62 c5 56 3 65 -20 91 -24 29 -29 30 -101 28
l-76 -2 -16 57 c-21 74 -47 102 -93 102 -20 -1 -50 -7 -68 -15z m773 -377 c18
-57 5 -168 -46 -388 -76 -327 -150 -539 -213 -607 -18 -20 -30 -23 -96 -23
-42 0 -137 11 -211 24 -513 90 -486 81 -484 163 2 65 41 190 129 413 41 102
79 198 85 214 l11 29 35 -35 c19 -20 48 -38 63 -41 64 -13 157 39 213 118 25
36 36 44 52 39 23 -7 24 -7 44 -5 20 2 14 39 -10 56 -18 12 -20 19 -12 32 8
13 27 16 99 15 50 0 124 3 165 7 143 15 168 14 176 -11z M6223 4325 c-23 -10
-33 -21 -33 -36 0 -18 4 -20 28 -14 15 4 43 6 62 5 56 -3 142 -4 185 -1 22 1
97 -1 166 -5 157 -8 202 -2 197 29 -3 21 -8 22 -178 29 -117 5 -196 3 -238 -4
-48 -9 -70 -9 -96 0 -41 15 -53 15 -93 -3z M6229 4131 c-44 -14 -79 -42 -79
-63 0 -23 13 -22 85 5 36 14 66 14 245 2 130 -8 211 -10 222 -4 30 16 21 38
-19 48 -51 13 -421 23 -454 12z M6324 3933 c-197 -4 -225 -9 -204 -43 8 -13
46 -15 230 -14 231 1 257 5 234 42 -13 19 -4 19 -260 15z M4147 4243 c-80
-121 -90 -141 -83 -159 13 -34 44 -12 98 69 79 118 100 161 85 176 -22 22 -36
10 -100 -86z M5264 3346 c-134 -62 -244 -231 -244 -373 0 -129 65 -155 223
-88 15 6 17 1 17 -44 0 -70 22 -120 60 -134 16 -6 30 -16 30 -22 0 -6 -14 -64
-31 -130 -59 -231 -74 -379 -44 -451 24 -57 66 -69 201 -55 60 6 164 11 230
11 159 1 378 16 420 30 41 14 64 53 64 107 0 21 -13 135 -29 253 -16 118 -34
283 -40 365 -12 168 -23 214 -62 256 -34 37 -53 37 -226 -1 -75 -16 -138 -30
-139 -30 0 0 4 18 9 40 8 26 8 49 1 67 l-10 28 -100 0 c-120 0 -134 8 -134 71
0 113 -81 154 -196 100z m754 -319 c17 -20 40 -172 57 -382 8 -104 25 -243 36
-307 22 -120 20 -182 -6 -192 -19 -7 -390 -25 -600 -28 l-169 -3 -10 28 c-13
37 12 209 60 417 l36 155 72 71 72 72 32 -29 c41 -36 72 -39 72 -5 0 16 -13
34 -35 53 l-36 28 28 33 c26 30 38 34 178 63 83 17 152 33 154 35 10 9 49 3
59 -9z M5860 2753 c-77 -13 -280 -67 -310 -83 -50 -25 -64 -44 -46 -59 10 -8
29 -6 77 9 35 10 105 29 154 40 164 39 195 50 195 70 0 16 -21 32 -38 29 -4
-1 -18 -4 -32 -6z M5765 2626 c-134 -41 -240 -83 -256 -102 -18 -21 -3 -47 24
-41 67 16 283 88 331 110 55 26 71 49 40 61 -21 8 -14 9 -139 -28z M5733 2437
c-111 -23 -208 -47 -214 -54 -15 -16 5 -43 32 -43 10 0 107 18 216 40 207 42
246 58 209 86 -24 17 -3 20 -243 -29z"/>
</g>
</svg>
