<?xml version="1.0" standalone="no"?>
<!DOCTYPE svg PUBLIC "-//W3C//DTD SVG 20010904//EN"
 "http://www.w3.org/TR/2001/REC-SVG-20010904/DTD/svg10.dtd">
<svg version="1.0" xmlns="http://www.w3.org/2000/svg"
 width="438.000000pt" height="476.000000pt" viewBox="0 0 438.000000 476.000000"
 preserveAspectRatio="xMidYMid meet">
<metadata>
Created by potrace 1.16, written by Peter Selinger 2001-2019
</metadata>
<g transform="translate(0.000000,476.000000) scale(0.100000,-0.100000)"
fill="#153C70" stroke="none">
<path d="M2992 4613 c-7 -3 -18 -19 -26 -36 -10 -25 -25 -36 -62 -49 -65 -24
-136 -77 -179 -136 -35 -48 -79 -157 -90 -226 -4 -24 -16 -47 -30 -58 -13 -10
-36 -43 -51 -73 -35 -73 -31 -146 11 -182 l27 -24 -25 -38 c-26 -39 -26 -39
-89 -37 -44 1 -77 -5 -106 -18 l-43 -19 -15 21 c-8 12 -35 34 -60 48 -78 46
-156 18 -224 -81 -25 -36 -37 -45 -61 -45 -16 0 -45 -6 -64 -14 -41 -17 -127
-96 -155 -141 -14 -23 -31 -35 -53 -39 -41 -8 -104 -49 -136 -88 -55 -68 -101
-239 -101 -373 0 -127 47 -194 190 -269 36 -19 85 -53 109 -76 25 -22 67 -48
94 -58 l49 -17 -5 -58 c-4 -39 -14 -71 -31 -97 -36 -55 -34 -84 10 -128 l37
-37 -6 -165 c-18 -457 -60 -647 -207 -934 -83 -161 -143 -247 -200 -284 -111
-72 -140 -183 -80 -310 38 -81 116 -164 182 -192 94 -40 284 -44 341 -7 31 20
44 59 29 91 -5 12 -45 43 -88 68 -76 44 -144 101 -144 119 0 14 14 11 84 -22
l67 -31 41 28 c68 47 213 190 292 288 94 117 195 270 278 418 56 101 67 115
79 102 8 -8 50 -37 94 -66 93 -59 297 -259 367 -358 75 -107 145 -237 168
-313 40 -131 104 -240 165 -277 67 -41 126 -20 296 106 186 138 249 211 249
287 0 19 -9 46 -20 59 -47 61 -134 62 -267 4 -96 -42 -122 -44 -160 -12 -27
24 -27 24 -9 45 18 19 18 24 1 121 -21 129 -62 267 -130 435 -114 285 -330
666 -448 792 l-30 32 35 39 c62 69 60 95 -14 214 -14 24 -29 59 -33 79 l-7 37
99 4 c82 3 108 8 154 31 34 16 73 27 100 27 24 1 62 7 84 15 22 8 56 15 76 15
33 0 37 -3 47 -39 16 -53 15 -68 -8 -91 -38 -38 -140 -22 -215 35 -25 19 -50
35 -55 35 -19 0 -10 -26 18 -52 69 -65 189 -95 251 -64 45 24 67 77 52 127 -6
20 -11 41 -11 47 0 6 46 10 123 11 223 2 310 11 327 33 16 19 170 493 170 521
0 19 -416 420 -429 413 -5 -4 -71 -126 -147 -272 l-137 -266 -29 53 c-15 29
-36 61 -46 72 -23 25 -70 49 -82 42 -15 -9 -12 -35 4 -35 36 0 136 -151 122
-185 -3 -8 -29 -16 -61 -20 -46 -6 -59 -4 -75 10 -19 17 -19 18 5 37 30 23 32
51 6 75 -10 10 -25 34 -34 53 -18 44 -70 98 -103 106 -28 7 -27 20 12 87 13
23 24 50 24 60 0 9 29 46 65 81 39 39 65 72 65 85 0 34 -23 24 -62 -28 -37
-49 -120 -101 -162 -101 -47 0 -97 23 -143 64 -34 31 -54 42 -63 36 -11 -7 -8
-15 13 -43 l26 -34 -25 -49 c-31 -61 -32 -166 -1 -172 15 -3 17 5 17 66 0 61
3 75 26 101 25 30 26 31 57 14 19 -10 55 -16 90 -16 65 1 68 -4 32 -62 -14
-22 -25 -48 -25 -57 0 -11 -18 -25 -47 -38 -113 -50 -174 -137 -128 -184 20
-20 20 -21 -16 -66 -23 -28 -30 -45 -26 -62 6 -21 3 -23 -32 -23 l-39 0 -6
101 c-11 166 -53 315 -99 353 -30 24 -31 -12 -3 -68 38 -73 56 -159 63 -298
l6 -123 63 0 c259 0 428 -88 411 -214 -11 -81 -76 -108 -257 -108 -225 1 -357
46 -475 165 -132 132 -182 283 -173 519 3 71 3 130 -1 132 -4 3 -13 1 -21 -4
-23 -14 -21 -293 3 -380 25 -94 77 -197 130 -260 l47 -55 -31 -26 c-39 -34
-137 -81 -219 -107 -79 -24 -190 -38 -190 -24 0 6 9 63 20 127 34 200 86 392
154 569 31 81 30 72 11 80 -12 4 -21 -7 -36 -42 -59 -135 -145 -446 -169 -615
-8 -53 -18 -86 -24 -84 -20 6 -75 108 -85 159 -26 118 -6 296 50 455 44 123
97 200 191 274 36 29 40 30 62 15 21 -13 26 -13 36 -1 9 11 6 17 -14 30 -24
16 -25 18 -11 46 22 42 48 53 84 35 35 -18 45 -40 25 -56 -8 -7 -14 -18 -14
-26 0 -28 24 -25 58 9 118 113 242 110 318 -9 19 -29 34 -57 34 -62 0 -5 7
-15 15 -22 12 -10 16 -9 21 5 9 23 -26 94 -71 144 l-36 39 31 46 c30 44 33 46
81 46 47 0 51 2 82 46 56 81 58 81 18 -6 -62 -135 -82 -217 -88 -366 -6 -145
15 -284 42 -284 23 0 25 14 8 76 -26 94 -21 266 10 386 31 120 106 277 181
381 59 83 66 101 40 111 -47 18 -74 -5 -74 -66 0 -18 -10 -44 -21 -58 -17 -21
-19 -22 -10 -3 6 12 11 37 11 56 0 47 18 95 40 107 51 27 86 -3 96 -82 4 -26
11 -48 16 -48 4 0 25 11 46 24 20 14 58 30 83 37 75 20 121 -1 143 -66 17 -47
7 -77 -45 -150 -37 -51 -49 -132 -27 -174 22 -40 33 -24 30 42 -3 58 -1 66 40
130 l43 67 108 0 c122 0 159 12 175 58 22 63 -37 118 -158 146 -35 8 -66 19
-70 23 -4 4 -12 28 -19 53 -21 73 -59 139 -108 187 -46 44 -129 93 -158 93 -9
0 -21 14 -27 30 -14 43 -54 60 -96 43z m58 -54 c0 -5 -11 -9 -25 -9 -27 0 -32
9 -13 28 12 12 38 -1 38 -19z m107 -75 c67 -32 146 -118 171 -187 38 -102 41
-94 -35 -86 -38 5 -114 8 -170 8 -75 1 -109 5 -130 18 -35 20 -70 13 -111 -22
-17 -14 -43 -25 -59 -25 -16 0 -55 -7 -86 -15 -32 -8 -60 -15 -61 -15 -10 0
18 92 44 146 48 99 144 179 244 205 49 13 137 1 193 -27z m315 -340 c52 -12
80 -24 100 -44 15 -16 28 -33 28 -39 0 -36 -81 -57 -185 -46 l-63 7 -6 39 c-4
23 -19 54 -39 75 l-32 37 62 -6 c34 -4 95 -14 135 -23z m-1209 -415 c40 -39
40 -40 4 -10 -54 44 -98 43 -143 -5 -19 -19 -34 -40 -34 -45 0 -5 -9 -9 -20
-9 -26 0 -25 4 7 46 32 43 68 63 111 64 25 0 42 -9 75 -41z m1496 -172 c64
-62 147 -143 186 -179 l69 -66 -68 -219 c-38 -120 -72 -223 -75 -229 -4 -8
-85 34 -226 116 -120 71 -223 126 -227 124 -4 -3 -8 -12 -8 -20 0 -8 -7 -14
-15 -14 -46 0 7 -40 190 -145 113 -65 205 -119 205 -121 0 -2 -52 -4 -115 -4
l-115 0 0 24 c0 36 -35 56 -100 56 -66 0 -89 10 -65 30 8 7 15 23 15 37 0 30
-32 43 -80 31 -155 -38 -180 -42 -205 -28 -13 7 -22 16 -20 20 2 4 42 15 89
25 92 19 131 38 108 53 -8 6 -59 -2 -130 -20 -106 -25 -120 -27 -151 -15 -34
14 -31 15 137 47 l171 32 102 197 c143 276 200 381 206 381 4 0 58 -51 122
-113z m-1719 67 c0 -3 -33 -42 -74 -85 -57 -61 -81 -95 -105 -153 -125 -301
-119 -579 17 -718 19 -21 33 -40 30 -43 -3 -3 -34 9 -68 27 -75 39 -119 97
-151 196 -92 296 54 722 265 772 40 10 86 12 86 4z m-354 -242 c-38 -73 -60
-194 -60 -332 0 -120 3 -143 26 -210 14 -41 25 -76 24 -77 -1 -1 -29 15 -63
37 -86 54 -116 108 -116 204 0 39 8 109 18 156 28 139 73 214 150 254 35 18
42 8 21 -32z m1387 -50 c22 -23 24 -31 14 -41 -10 -10 -3 -20 33 -51 24 -22
41 -42 38 -46 -4 -3 -28 5 -54 20 -25 14 -53 26 -60 26 -22 0 -16 -29 9 -41
19 -9 87 -89 87 -104 0 -3 -8 -5 -17 -5 -10 0 -41 25 -69 55 -33 35 -59 55
-73 55 -13 0 -49 -23 -86 -55 -70 -62 -99 -72 -62 -22 13 17 32 44 42 59 17
27 17 28 -9 38 -35 13 -33 40 7 77 54 50 79 63 127 63 38 0 51 -5 73 -28z
m-53 -208 c17 -20 28 -40 23 -44 -10 -9 -131 -30 -173 -30 l-33 0 39 29 c21
15 50 40 63 55 32 34 43 33 81 -10z m340 -189 c-7 -8 -24 -21 -39 -28 -14 -6
-25 -16 -24 -22 2 -16 70 -35 150 -42 40 -3 73 -9 73 -13 0 -4 -35 -10 -77
-12 -49 -4 -97 -14 -128 -27 -27 -13 -72 -25 -98 -28 l-48 -6 6 35 c4 19 2 51
-3 71 -11 38 -4 46 41 48 12 0 47 9 77 19 71 24 87 25 70 5z m-924 -231 c-63
-58 -139 -85 -253 -92 -127 -7 -148 5 -53 29 80 21 216 84 265 123 l30 24 29
-21 29 -21 -47 -42z m199 -58 c10 -65 26 -109 47 -133 20 -21 20 -21 -6 -59
-14 -21 -26 -45 -26 -52 0 -8 -6 -12 -15 -8 -8 3 -54 10 -102 17 -155 21 -336
-2 -521 -64 -71 -24 -97 -29 -110 -21 -25 16 -26 50 -3 82 23 33 40 99 41 156
0 37 1 38 28 32 96 -22 204 -29 271 -19 89 14 188 59 238 110 l38 39 57 -19
c55 -19 57 -21 63 -61z m115 19 c49 -8 59 -17 60 -55 0 -14 14 -47 30 -75 64
-109 64 -111 50 -145 -7 -17 -25 -39 -40 -50 l-28 -20 -53 24 c-30 13 -62 26
-71 29 -21 7 -15 29 19 70 29 36 29 45 -1 86 -14 18 -30 56 -35 83 -14 65 -14
70 7 64 9 -2 37 -8 62 -11z m-123 -842 c-2 -27 -3 -5 -3 47 0 52 1 74 3 48 2
-27 2 -69 0 -95z m-10 -135 c-2 -13 -4 -5 -4 17 -1 22 1 32 4 23 2 -10 2 -28
0 -40z m1241 -824 c27 -19 30 -73 5 -115 -17 -28 -33 -38 -33 -20 0 5 -21 23
-47 40 -35 23 -58 31 -92 31 -50 0 -80 -15 -162 -80 -36 -29 -60 -40 -84 -40
-40 0 -87 36 -105 81 -13 30 -12 32 26 65 38 32 64 43 64 25 0 -4 19 -19 43
-31 52 -28 80 -24 187 25 85 38 160 46 198 19z m-2286 -23 c15 -28 15 -30 -2
-46 -29 -26 -60 -101 -60 -143 0 -52 33 -96 140 -186 74 -62 86 -76 66 -76
-41 0 -123 31 -160 61 -53 44 -113 141 -126 204 -10 47 -9 60 8 97 17 39 91
118 110 118 4 0 14 -13 24 -29z m92 -109 c34 -32 45 -48 41 -62 -14 -45 59
-120 183 -185 79 -43 68 -86 -27 -101 -37 -6 -46 -3 -97 36 -31 23 -92 77
-135 119 -72 69 -79 79 -79 115 0 40 44 130 60 124 4 -2 29 -22 54 -46z m2097
7 c55 -39 56 -46 9 -87 -143 -124 -309 -226 -350 -215 -36 9 -107 100 -138
176 -47 113 -47 113 -16 134 26 17 28 17 38 -2 6 -11 30 -39 52 -62 37 -38 47
-43 86 -43 35 0 54 7 84 30 83 64 120 88 139 92 28 7 66 -2 96 -23z M3680
3308 c0 -58 46 -98 77 -67 7 7 12 3 17 -16 6 -22 12 -26 31 -23 17 4 25 0 28
-14 3 -10 12 -18 21 -18 12 0 16 10 16 39 0 41 -13 53 -47 45 -12 -3 -21 2
-28 17 -13 29 -29 34 -48 14 -22 -21 -25 -19 -29 17 -2 22 -9 34 -20 36 -14 3
-18 -4 -18 -30z M1906 3569 c-29 -34 -34 -59 -12 -59 18 0 69 67 61 80 -10 17
-22 12 -49 -21z M1820 3445 c-21 -34 -21 -65 -1 -65 11 0 51 71 51 90 0 23
-30 8 -50 -25z M1756 3310 c-20 -50 -20 -60 0 -60 15 0 44 55 44 85 0 30 -28
14 -44 -25z M1716 3188 c-10 -40 -7 -78 8 -78 14 0 39 77 30 92 -10 16 -32 8
-38 -14z M1700 3015 c0 -48 3 -56 18 -53 13 3 17 14 17 53 0 39 -4 50 -17 53
-15 3 -18 -5 -18 -53z M1714 2878 c8 -49 13 -58 32 -58 17 0 17 12 3 63 -6 23
-16 37 -26 37 -13 0 -14 -8 -9 -42z M1750 2761 c0 -29 36 -69 50 -55 9 9 8 19
-4 43 -18 34 -46 42 -46 12z M1610 3339 c-21 -40 -21 -69 -1 -69 15 0 53 79
47 96 -9 24 -25 15 -46 -27z M1561 3194 c-9 -33 -9 -50 -2 -57 7 -7 14 -7 20
-1 13 13 31 85 25 96 -13 21 -33 4 -43 -38z M1545 3077 c-10 -39 -2 -82 15
-82 11 0 15 12 15 49 0 53 -20 75 -30 33z M1550 2926 c0 -29 10 -38 29 -27 17
11 5 51 -15 51 -8 0 -14 -10 -14 -24z M3167 4022 c-36 -40 -5 -82 34 -46 23
20 22 57 -2 62 -8 1 -23 -6 -32 -16z M2920 3820 c0 -61 76 -168 102 -142 8 8
3 20 -20 47 -30 33 -37 49 -44 100 -2 11 -11 21 -21 23 -13 3 -17 -3 -17 -28z"/>
</g>
</svg>
