<?xml version="1.0" standalone="no"?>
<!DOCTYPE svg PUBLIC "-//W3C//DTD SVG 20010904//EN"
 "http://www.w3.org/TR/2001/REC-SVG-20010904/DTD/svg10.dtd">
<svg version="1.0" xmlns="http://www.w3.org/2000/svg"
 width="1372.000000pt" height="1146.000000pt" viewBox="0 0 1372.000000 1146.000000"
 preserveAspectRatio="xMidYMid meet">
<metadata>
Created by potrace 1.16, written by Peter Selinger 2001-2019
</metadata>
<g transform="translate(0.000000,1146.000000) scale(0.100000,-0.100000)"
fill="#FFFFFF" stroke="none">
<path d="M9735 8881 c-118 -53 -174 -194 -125 -309 26 -60 93 -125 147 -143
21 -7 63 -9 101 -6 51 4 74 11 109 36 24 17 48 31 54 31 21 0 120 -73 159
-118 79 -89 129 -233 130 -368 0 -78 -24 -207 -56 -294 -27 -75 -29 -101 -13
-133 19 -37 52 -57 95 -57 79 0 119 58 171 248 23 84 26 116 26 242 0 129 -3
155 -27 235 -65 212 -203 383 -378 467 -48 23 -71 41 -79 60 -14 35 -81 96
-125 114 -47 20 -141 17 -189 -5z M2575 8426 c-116 -53 -149 -112 -229 -407
-253 -933 -529 -2265 -635 -3075 -49 -375 -55 -448 -55 -699 1 -200 4 -259 22
-356 62 -339 208 -529 472 -610 64 -20 96 -24 225 -24 166 1 250 14 444 70
167 49 393 140 637 259 222 108 280 149 316 219 65 128 11 299 -113 361 -89
44 -121 39 -430 -69 -449 -158 -700 -224 -797 -209 -66 10 -115 59 -131 134
-56 258 15 911 199 1828 91 450 159 746 317 1372 226 895 215 844 209 928 -12
182 -143 302 -329 302 -54 0 -84 -6 -122 -24z M8809 8247 c-61 -23 -97 -55
-125 -112 -37 -76 -32 -165 12 -227 39 -56 119 -98 185 -98 94 0 185 65 210
150 l12 40 54 0 c64 0 161 -31 224 -71 92 -58 204 -199 240 -303 8 -21 25 -49
38 -62 53 -53 162 -16 176 60 14 74 -79 256 -193 377 -84 90 -187 159 -294
197 -64 23 -89 26 -208 26 -94 1 -142 5 -159 15 -34 19 -129 24 -172 8z
M11750 7681 c-347 -112 -728 -568 -1013 -1212 -36 -80 -75 -173 -87 -207 -21
-58 -22 -63 -6 -87 28 -43 72 -34 220 43 502 263 889 586 1053 880 214 382
128 679 -167 583z M9925 7510 c-127 -17 -251 -84 -345 -186 -286 -311 -132
-821 280 -925 259 -66 518 51 644 290 66 126 81 258 46 397 -70 274 -347 461
-625 424z M5155 7289 c-113 -15 -212 -46 -342 -109 -533 -259 -979 -958 -1115
-1746 -30 -176 -32 -518 -4 -669 91 -494 368 -820 791 -935 116 -32 346 -39
486 -15 399 66 810 325 1104 693 122 153 140 189 140 288 0 72 -3 86 -30 129
-45 73 -101 108 -179 113 -104 7 -124 -5 -291 -167 -207 -202 -319 -288 -490
-373 -269 -136 -522 -150 -698 -41 -145 90 -243 310 -250 556 l-2 92 50 3 c99
5 263 33 392 67 636 167 1132 601 1270 1112 24 87 27 116 27 263 1 163 0 166
-35 265 -58 166 -157 291 -297 374 -86 51 -156 76 -268 96 -95 16 -152 17
-259 4z m177 -559 c44 -13 93 -52 113 -91 9 -17 15 -56 15 -100 0 -328 -319
-669 -765 -818 -113 -38 -290 -76 -319 -69 -10 2 -4 31 24 114 166 497 489
897 774 959 76 17 111 18 158 5z M8555 7253 c-27 -8 -72 -31 -98 -50 -119 -88
-506 -544 -842 -993 -59 -80 -111 -148 -114 -152 -11 -12 -280 471 -443 794
-115 227 -155 275 -255 304 -124 36 -261 -27 -325 -149 -17 -32 -22 -59 -22
-117 0 -66 6 -89 48 -195 101 -250 351 -729 583 -1112 l43 -71 -102 -149
c-462 -676 -826 -1305 -964 -1668 -35 -90 -39 -109 -39 -195 0 -107 16 -150
79 -213 57 -57 120 -82 206 -82 144 1 185 41 319 310 126 253 273 521 436 795
134 224 402 640 414 640 3 0 24 -26 45 -58 169 -247 422 -591 564 -767 233
-288 265 -314 383 -323 63 -4 75 -2 133 27 69 33 104 72 138 148 27 60 21 158
-12 223 -12 24 -95 139 -184 255 -263 343 -464 628 -635 902 l-83 131 78 109
c260 362 499 669 804 1033 89 107 173 218 186 245 70 147 -18 332 -179 380
-62 18 -97 18 -162 -2z M12053 6681 c-270 -73 -551 -250 -875 -552 -156 -145
-248 -252 -248 -288 0 -46 26 -61 111 -61 260 0 712 97 936 200 201 93 366
240 443 392 34 68 40 90 40 143 0 76 -25 118 -90 155 -62 34 -211 39 -317 11z
M9864 6230 c-195 -36 -372 -136 -492 -280 -89 -107 -163 -278 -187 -429 l-7
-44 48 7 c110 15 431 19 549 7 315 -32 621 -114 908 -242 95 -42 109 -46 115
-31 4 9 7 96 7 192 0 200 -10 253 -75 385 -95 197 -276 346 -495 410 -101 29
-280 41 -371 25z M9280 5199 c-109 -13 -104 -7 -96 -97 13 -161 37 -408 41
-427 4 -19 12 -20 202 -20 216 -1 309 -14 525 -75 93 -26 279 -98 295 -114 8
-8 -38 -76 -110 -164 -48 -59 -64 -73 -81 -69 -11 3 -79 26 -151 51 -186 65
-492 110 -605 89 l-45 -9 3 -99 c7 -183 -23 -329 -98 -481 -78 -159 -198 -306
-331 -405 -71 -53 -86 -78 -75 -125 15 -59 130 -67 347 -23 268 53 566 198
799 386 352 284 665 754 806 1211 l23 74 -115 54 c-406 192 -938 288 -1334
243z"/>
</g>
</svg>
