<?xml version="1.0" standalone="no"?>
<!DOCTYPE svg PUBLIC "-//W3C//DTD SVG 20010904//EN"
 "http://www.w3.org/TR/2001/REC-SVG-20010904/DTD/svg10.dtd">
<svg version="1.0" xmlns="http://www.w3.org/2000/svg"
 width="736.000000pt" height="736.000000pt" viewBox="0 0 736.000000 736.000000"
 preserveAspectRatio="xMidYMid meet">
<metadata>
Created by potrace 1.16, written by Peter Selinger 2001-2019
</metadata>
<g transform="translate(0.000000,736.000000) scale(0.100000,-0.100000)"
fill="#153C70" stroke="none">
<path d="M3060 6114 c-122 -26 -229 -78 -309 -150 -71 -64 -95 -106 -87 -152
8 -48 8 -57 0 -119 -6 -49 -4 -54 23 -82 30 -29 86 -51 134 -51 14 0 61 9 104
20 43 11 89 20 102 20 12 0 23 4 23 9 0 11 151 93 158 86 8 -8 -8 -36 -17 -30
-15 9 -91 -25 -91 -41 0 -17 7 -17 64 -2 39 10 48 10 63 -4 31 -28 66 -31 133
-8 34 11 64 20 65 18 2 -2 -14 -48 -36 -102 -21 -55 -39 -115 -39 -133 0 -39
26 -58 63 -44 26 10 73 62 90 99 13 28 37 25 56 -9 31 -56 -17 -128 -92 -136
-71 -8 -59 -27 13 -20 33 3 58 1 55 -4 -9 -13 22 -55 51 -67 35 -16 70 -15
110 4 42 20 43 40 3 73 l-31 26 47 0 c39 0 51 5 71 28 30 35 30 45 -1 59 -54
24 -67 102 -39 230 20 91 22 224 5 258 -48 91 -140 121 -232 75 -24 -13 -27
-11 -68 36 -50 58 -131 102 -216 118 -73 14 -93 13 -175 -5z m-279 -183 c-35
-43 -38 -66 -16 -98 14 -20 13 -25 -10 -58 -34 -51 -42 -102 -22 -137 19 -34
12 -36 -20 -6 -32 30 -29 67 12 128 19 29 35 54 35 56 0 10 -29 2 -40 -11 -8
-10 -17 -12 -23 -6 -17 17 13 79 60 126 55 55 65 58 24 6z M3460 6109 c0 -29
39 -91 54 -86 15 5 12 73 -4 92 -19 23 -50 19 -50 -6z M2476 6064 c-11 -28 -6
-91 7 -103 20 -16 27 -4 27 45 0 46 -8 74 -20 74 -4 0 -11 -7 -14 -16z M3590
6062 c-23 -7 -50 -33 -50 -48 0 -9 8 -10 31 -4 33 10 59 27 59 40 0 11 -22 18
-40 12z M2310 5920 c0 -14 11 -22 41 -30 48 -13 74 -10 74 9 0 15 -55 39 -92
40 -16 1 -23 -5 -23 -19z M2804 5503 c-12 -45 13 -216 42 -288 31 -76 96 -153
163 -193 39 -23 58 -27 118 -27 46 0 73 -4 73 -11 0 -18 35 -44 59 -44 61 0
121 71 121 143 0 19 7 51 16 72 27 65 11 74 -23 14 -108 -192 -341 -199 -457
-15 -51 81 -67 131 -78 258 -11 116 -21 144 -34 91z M2896 5494 c-10 -26 -7
-57 9 -88 14 -26 14 -33 -1 -72 -28 -72 4 -111 78 -95 48 11 62 21 50 33 -7 7
-22 6 -45 -1 -80 -27 -83 4 -16 143 47 98 46 124 -2 46 -35 -57 -49 -54 -49
13 0 38 -13 50 -24 21z M3056 5503 c-3 -3 -6 -27 -6 -53 0 -52 21 -80 59 -80
26 0 69 43 77 77 8 31 -5 43 -20 19 -48 -81 -86 -86 -86 -12 0 43 -10 63 -24
49z M2015 5280 c-3 -5 4 -26 15 -47 29 -54 25 -91 -16 -159 -78 -128 -88 -168
-55 -233 22 -41 53 -66 97 -77 26 -6 25 -4 -14 25 -86 64 -91 126 -18 234 67
97 77 155 40 228 -14 29 -40 44 -49 29z M3156 5245 c-10 -14 -30 -27 -51 -31
-45 -8 -45 -24 0 -24 49 0 106 56 76 74 -5 3 -16 -5 -25 -19z M2146 5083 c-3
-3 -6 -15 -6 -25 0 -11 -16 -49 -35 -85 -37 -70 -42 -97 -23 -137 11 -26 56
-62 65 -52 3 2 -7 17 -21 33 -36 38 -33 77 9 143 22 33 35 67 35 87 0 31 -11
49 -24 36z M3429 4960 c-20 -11 -59 -48 -87 -83 -67 -85 -125 -100 -134 -34
-2 12 -10 22 -18 22 -12 0 -14 -11 -12 -50 2 -27 9 -56 14 -62 28 -34 95 3
159 86 60 79 85 100 133 112 25 6 49 15 52 20 10 17 -71 8 -107 -11z M3580
4951 c0 -5 29 -25 64 -46 212 -124 449 -395 596 -681 65 -127 110 -256 117
-334 l5 -65 -44 -41 c-55 -51 -158 -92 -351 -139 -78 -20 -150 -38 -159 -41
-14 -4 -18 0 -18 21 0 49 -61 143 -112 175 l-31 18 39 20 c22 11 95 39 164 63
114 40 133 44 218 43 93 0 114 8 66 26 -43 17 -120 11 -201 -15 -93 -30 -106
-31 -99 -7 2 9 8 54 11 100 9 103 -9 111 -21 10 l-9 -73 -55 -28 c-150 -75
-478 -79 -579 -8 l-27 19 9 94 c12 130 5 524 -9 538 -8 8 -11 -49 -11 -217 0
-428 -48 -826 -164 -1373 -27 -129 -48 -241 -46 -250 5 -26 79 98 187 315 140
282 147 265 12 -31 -152 -334 -489 -847 -751 -1143 -96 -108 -99 -114 -65
-168 18 -29 84 -89 141 -130 25 -18 48 -34 50 -37 8 -8 -52 -116 -62 -112
-179 79 -278 103 -310 76 -22 -18 -19 -32 17 -69 41 -42 219 -129 281 -137 59
-8 62 -24 5 -25 -24 -1 -56 -5 -73 -9 -26 -6 -27 -8 -11 -15 18 -8 305 1 314
10 11 11 -10 17 -81 22 l-74 6 64 91 c36 50 70 90 77 89 6 -2 43 -11 81 -22
39 -11 87 -20 107 -20 48 -1 91 15 82 31 -5 8 2 9 23 5 35 -7 61 17 135 123
161 231 341 565 488 905 97 226 124 294 154 400 l24 79 6 -309 c10 -526 18
-713 31 -776 l6 -27 -114 -3 c-155 -5 -152 -2 -143 -149 8 -151 37 -291 68
-329 13 -16 39 -33 58 -39 74 -23 357 -34 720 -29 344 4 410 9 410 27 0 17
-34 19 -152 9 -150 -13 -803 -6 -903 10 -60 10 -74 16 -97 44 -42 49 -58 116
-65 274 l-6 141 84 4 c46 2 289 -3 539 -11 424 -14 530 -12 530 8 0 4 -109 11
-242 15 -265 7 -434 18 -571 37 -149 22 -102 33 154 39 129 3 235 7 237 8 18
12 -36 18 -195 20 -103 1 -210 6 -238 10 l-50 7 -3 52 c-4 73 9 79 142 62 68
-8 229 -12 491 -11 390 1 545 7 545 22 0 4 -231 10 -512 13 -522 6 -602 11
-648 45 l-25 19 -8 293 c-5 161 -6 303 -3 316 10 40 32 44 187 32 176 -14 873
2 904 20 15 9 -92 12 -445 12 -464 0 -584 7 -627 35 l-23 15 0 323 0 322 333
1 c304 1 719 16 858 30 l57 6 6 -58 c22 -207 44 -964 49 -1650 l2 -372 -30
-17 c-16 -9 -77 -42 -135 -73 -142 -75 -75 -62 79 15 115 57 393 235 420 267
22 26 1 38 -70 40 l-61 1 3 195 c11 571 -14 1482 -47 1716 -10 73 -13 74 -117
20 -112 -57 -128 -60 -527 -75 -306 -13 -535 -13 -600 -2 -26 5 -34 9 -20 10
14 0 84 21 155 46 77 27 148 45 175 45 25 0 70 6 100 13 36 8 88 10 150 6 130
-9 546 -9 594 -1 22 4 41 12 43 17 2 7 -112 10 -325 11 -325 1 -553 10 -535
23 114 78 -10 434 -275 788 -132 176 -329 355 -427 390 -56 21 -65 22 -65 14z
m104 -1202 c14 -17 26 -34 26 -38 0 -21 -44 -44 -91 -49 -44 -4 -56 -10 -94
-51 -49 -52 -68 -52 -30 -1 25 34 33 70 16 70 -5 0 -31 -16 -57 -35 -27 -19
-59 -42 -72 -51 -45 -33 -36 -1 12 42 27 25 46 48 42 51 -11 11 -67 -26 -123
-80 -39 -38 -53 -46 -53 -33 0 10 26 44 59 76 32 33 56 61 54 64 -11 10 -41
-9 -94 -62 -67 -64 -95 -67 -50 -4 57 78 131 110 261 113 36 1 79 5 95 9 56
14 73 11 99 -21z m1540 -102 c22 -89 56 -909 56 -1342 -1 -293 -15 -668 -27
-689 -4 -8 -9 277 -9 632 -2 747 -21 1246 -54 1369 -5 20 -4 35 3 42 17 17 24
13 31 -12z m-1516 -18 c19 -29 8 -35 -22 -11 -14 10 -22 22 -19 26 12 12 28 6
41 -15z M3105 4748 c-2 -7 -6 -49 -10 -93 -12 -164 -61 -321 -130 -425 -26
-39 -45 -76 -43 -82 5 -15 78 82 112 149 56 112 116 386 96 438 -10 28 -19 32
-25 13z M2030 4584 c-30 -8 -68 -23 -85 -33 -26 -15 -30 -23 -28 -59 2 -45 91
-282 126 -334 19 -28 30 -34 67 -36 24 -2 63 4 87 13 34 13 45 23 51 47 7 27
16 34 62 50 58 19 84 43 75 67 -3 7 2 22 11 32 15 17 15 20 1 43 -15 23 -15
25 8 51 14 14 25 29 25 34 0 17 -27 31 -61 31 -30 0 -38 4 -43 23 -8 34 -56
58 -107 52 -24 -2 -78 -7 -119 -9 -90 -6 -65 8 33 18 37 4 65 12 62 17 -9 14
-103 10 -165 -7z m258 -65 c26 -23 22 -35 -12 -41 -26 -5 -36 7 -36 43 0 25
21 24 48 -2z m-67 -51 c9 -115 4 -275 -9 -291 -17 -20 -64 -30 -102 -22 -26 6
-36 19 -74 98 -25 51 -53 122 -64 159 l-19 66 86 4 c61 2 97 9 126 24 22 11
43 19 46 18 3 -2 7 -27 10 -56z m153 -4 c22 -9 10 -23 -14 -17 -11 3 -17 9
-14 14 6 11 8 11 28 3z m-40 -34 c38 -14 32 -27 -16 -33 -42 -6 -58 2 -58 31
0 14 39 16 74 2z m34 -82 c-3 -7 -25 -17 -51 -24 -46 -12 -47 -12 -47 12 0 22
4 24 51 24 35 0 49 -4 47 -12z m-18 -67 c0 -5 -20 -16 -45 -24 -43 -15 -45
-15 -45 3 0 10 8 21 18 23 31 8 72 7 72 -2z M2005 4410 c3 -5 24 -10 45 -10
21 0 42 5 45 10 4 6 -13 10 -45 10 -32 0 -49 -4 -45 -10z M3528 4482 c-35 -7
-20 -32 20 -31 53 0 120 15 102 22 -21 8 -101 14 -122 9z M2446 4345 c14 -66
32 -91 90 -130 32 -22 63 -42 67 -46 11 -8 -24 -78 -50 -101 -19 -17 -21 -16
-66 36 -26 31 -43 58 -37 61 24 15 4 20 -86 20 -77 1 -92 -2 -79 -11 9 -7 38
-15 64 -19 64 -9 127 -60 116 -95 -7 -21 -8 -22 -17 -5 -8 14 -12 15 -19 4
-14 -22 -10 -75 6 -89 41 -34 163 57 211 158 15 31 28 58 29 60 1 1 22 -9 47
-23 109 -61 301 -82 316 -36 4 11 -2 12 -29 6 -80 -20 -201 8 -298 69 -49 31
-59 32 -69 5 -7 -19 -12 -17 -85 30 -52 34 -77 57 -77 70 0 10 -9 29 -20 42
l-20 24 6 -30z M3780 4338 c0 -6 19 -30 43 -52 23 -23 76 -88 117 -146 95
-134 97 -136 145 -143 22 -3 55 -9 74 -13 27 -5 33 -4 29 7 -5 17 -61 38 -103
39 -27 0 -40 14 -120 126 -102 144 -185 225 -185 182z M2445 3941 c-9 -16 -1
-25 62 -67 71 -47 186 -96 281 -119 61 -15 83 -16 129 -6 90 18 162 67 178
121 7 23 4 22 -32 -13 -86 -82 -212 -99 -355 -47 -72 26 -168 78 -235 126 -14
10 -23 12 -28 5z M4481 3658 c-46 -21 -81 -41 -78 -44 7 -7 155 55 163 68 12
18 -2 15 -85 -24z M4601 3660 c-24 -11 -41 -23 -38 -26 8 -8 107 26 107 37 0
14 -21 11 -69 -11z M4085 3280 c-3 -10 -3 -35 1 -54 5 -31 11 -36 41 -42 38
-7 166 1 183 11 20 12 -2 25 -44 25 -40 0 -66 13 -66 33 0 17 108 2 131 -19
21 -19 21 -19 17 16 -3 33 -5 35 -48 42 -25 3 -82 7 -127 7 -73 1 -82 -1 -88
-19z M4108 2484 c-11 -10 -10 -76 1 -93 11 -17 132 -27 179 -15 44 12 45 28 2
32 -36 4 -60 17 -60 34 0 11 100 -1 117 -14 14 -11 25 5 17 25 -3 9 -12 18
-19 21 -25 9 -230 18 -237 10z M3420 2154 c-143 -298 -266 -507 -366 -624 -40
-47 -44 -55 -30 -68 8 -8 43 -20 78 -27 60 -10 63 -12 66 -42 l3 -30 -118 -5
c-124 -5 -172 -20 -193 -58 -17 -32 25 -50 140 -60 95 -9 224 -1 249 15 6 3
11 2 11 -3 0 -5 -10 -13 -22 -18 -30 -10 113 -18 162 -8 30 5 32 8 15 14 -11
5 -46 9 -78 9 l-58 1 6 38 c11 68 28 124 39 127 6 2 40 6 76 10 36 3 71 9 77
13 9 6 13 97 16 327 3 226 9 349 21 420 17 109 20 165 9 165 -5 0 -51 -88
-103 -196z M4736 1832 c-10 -16 37 -403 55 -449 5 -13 14 -21 20 -18 6 4 8 13
5 20 -9 24 -38 253 -34 275 2 16 23 29 88 55 46 19 85 33 85 32 1 -1 10 -64
20 -140 11 -90 22 -136 29 -134 11 4 12 37 0 210 -7 117 -5 115 -140 124 -66
4 -97 10 -101 20 -6 15 -19 17 -27 5z M3787 1743 c-10 -9 -8 -75 1 -91 18 -27
209 -25 215 3 1 6 -15 11 -35 13 -33 3 -68 26 -56 37 5 5 96 -9 121 -20 19 -8
23 10 7 35 -13 20 -236 41 -253 23z"/>
</g>
</svg>
