<?xml version="1.0" standalone="no"?>
<!DOCTYPE svg PUBLIC "-//W3C//DTD SVG 20010904//EN"
 "http://www.w3.org/TR/2001/REC-SVG-20010904/DTD/svg10.dtd">
<svg version="1.0" xmlns="http://www.w3.org/2000/svg"
 width="736.000000pt" height="736.000000pt" viewBox="0 0 736.000000 736.000000"
 preserveAspectRatio="xMidYMid meet">
<metadata>
Created by potrace 1.16, written by Peter Selinger 2001-2019
</metadata>
<g transform="translate(0.000000,736.000000) scale(0.100000,-0.100000)"
fill="#153C70" stroke="none">
<path d="M5360 6045 c-11 -13 -8 -15 13 -15 16 0 31 -8 37 -20 14 -25 30 -26
30 -1 0 20 -34 51 -56 51 -6 0 -17 -7 -24 -15z M4882 6014 c-13 -9 -30 -13
-38 -10 -10 4 -13 2 -7 -7 4 -6 8 -32 8 -57 0 -55 18 -65 25 -13 5 41 7 42 58
29 26 -6 32 -12 27 -27 -7 -20 12 -62 24 -55 4 3 6 20 3 37 -5 31 -4 32 28 26
18 -4 38 -7 46 -7 8 0 14 -15 16 -42 4 -57 28 -64 28 -8 0 38 2 41 23 34 28
-9 77 -33 77 -39 0 -17 -65 -178 -91 -224 -67 -120 -194 -251 -244 -251 -23 0
-313 105 -346 126 -4 2 21 32 55 67 109 111 193 246 224 360 17 63 -5 42 -49
-45 -71 -142 -143 -233 -268 -341 -30 -25 -53 -48 -50 -50 2 -1 45 -17 94 -34
50 -17 143 -50 208 -73 87 -31 125 -40 148 -35 39 9 149 112 201 188 50 73
112 205 129 271 12 48 12 50 -15 73 -15 12 -36 23 -47 23 -10 0 -19 5 -19 11
0 7 11 9 30 6 32 -7 38 1 18 21 -17 17 -48 15 -69 -4 -25 -23 -127 -10 -108
13 8 8 23 13 36 10 15 -3 22 0 20 7 -7 21 -55 18 -74 -3 -18 -21 -39 -26 -67
-15 -23 9 -20 26 4 19 22 -7 26 5 8 23 -15 15 -19 15 -46 -4z M5256 6002 c-3
-5 6 -14 19 -20 13 -6 31 -25 40 -42 8 -16 20 -30 25 -30 16 0 11 43 -8 67
-19 24 -67 40 -76 25z M4800 5802 c0 -14 36 -22 101 -22 33 0 63 -6 75 -15 21
-16 59 -21 50 -6 -3 5 -20 15 -38 24 -40 18 -188 33 -188 19z M4772 5728 c3
-7 27 -16 54 -20 27 -4 62 -9 79 -13 59 -11 9 14 -58 29 -82 19 -80 19 -75 4z
M2467 5673 c-4 -3 12 -15 35 -25 48 -21 63 -15 29 13 -23 19 -52 25 -64 12z
M4725 5640 c-3 -5 14 -14 37 -21 24 -6 53 -15 66 -20 13 -5 22 -5 22 0 0 13
-119 51 -125 41z M2453 5602 c-7 -5 4 -15 32 -29 58 -28 75 -4 18 26 -25 13
-34 13 -50 3z M2282 5435 c-197 -66 -321 -153 -305 -214 7 -26 198 -171 226
-171 10 0 49 17 85 39 103 59 200 106 282 135 41 15 82 29 90 32 12 4 12 7 1
13 -30 19 -174 -32 -338 -121 -109 -59 -122 -58 -217 7 -35 23 -75 49 -90 57
l-28 15 46 40 c25 22 71 54 103 70 58 31 208 85 270 98 l32 6 -21 -63 c-11
-35 -23 -65 -25 -68 -2 -2 -32 -7 -66 -12 -144 -17 -269 -49 -254 -64 2 -2 31
2 63 11 32 9 109 18 169 22 61 3 115 10 121 14 6 5 19 38 29 74 l17 65 37 -29
c66 -52 140 -93 163 -89 19 3 14 8 -32 38 -30 19 -81 56 -112 83 -72 59 -102
61 -246 12z M3989 5280 c-9 -5 -60 -16 -114 -24 -112 -17 -145 -34 -145 -74 0
-83 132 -244 251 -307 65 -34 77 -37 134 -33 50 3 74 11 120 39 85 53 145 102
142 118 -1 7 -30 23 -64 36 -109 39 -187 98 -262 198 -24 31 -44 57 -45 57 0
0 -8 -5 -17 -10z m40 -47 c22 -60 127 -155 218 -199 43 -20 80 -38 82 -40 9
-7 -61 -57 -126 -90 -58 -29 -80 -36 -108 -31 -54 9 -114 41 -174 94 -61 54
-151 184 -151 219 0 25 27 36 125 49 28 4 64 13 80 20 41 18 39 19 54 -22z
M3942 5151 c-49 -17 -89 -41 -66 -41 24 1 129 39 132 49 5 15 -3 14 -66 -8z
M3990 5088 c-62 -24 -65 -26 -58 -33 7 -8 128 36 128 46 0 12 -6 11 -70 -13z
M4075 5044 l-40 -13 40 5 c22 3 44 10 50 15 12 12 -1 11 -50 -7z M6091 4984
c-12 -15 -21 -37 -21 -49 0 -30 37 -75 61 -75 25 0 24 12 -2 36 -18 16 -20 27
-16 67 4 26 4 47 2 47 -2 0 -13 -12 -24 -26z M6160 4970 c-8 -14 -8 -26 0 -40
17 -32 29 -23 28 20 0 44 -11 51 -28 20z M5796 4803 c-123 -129 -143 -155
-181 -227 -53 -103 -35 -116 74 -53 53 32 253 234 279 283 12 22 10 27 -17 54
-16 17 -39 30 -50 30 -13 0 -52 -33 -105 -87z m124 -10 c-32 -41 -150 -164
-185 -193 -16 -14 22 32 85 101 63 69 117 124 119 123 2 -2 -7 -16 -19 -31z
m-251 -232 c10 -7 8 -12 -10 -24 -27 -20 -43 -13 -29 14 12 21 18 23 39 10z
M2432 4484 c-276 -185 -370 -257 -412 -315 -44 -61 -115 -205 -150 -304 -53
-152 -110 -457 -94 -507 9 -29 13 -19 24 68 41 305 140 579 255 702 l52 56
184 -14 c213 -15 218 -15 243 -5 22 10 26 17 -53 -105 -31 -47 -103 -176 -161
-285 -97 -184 -111 -206 -185 -281 -97 -97 -174 -148 -401 -266 -128 -67 -176
-96 -180 -112 -3 -12 6 -58 20 -101 14 -44 22 -82 18 -86 -4 -3 -47 -32 -97
-64 -49 -32 -93 -63 -97 -69 -12 -18 0 -19 26 -2 25 16 25 16 31 -22 14 -79
47 -189 73 -235 31 -59 65 -87 102 -87 59 0 62 36 14 203 -14 48 -24 94 -21
100 2 7 16 19 31 26 24 13 27 12 48 -15 40 -53 116 -123 157 -144 74 -37 135
-22 246 60 191 142 396 349 544 550 35 46 87 133 116 193 l52 108 6 -61 c4
-33 27 -163 53 -288 57 -279 56 -308 -8 -443 -24 -52 -70 -137 -101 -191 -139
-236 -141 -275 -13 -363 31 -21 56 -40 56 -42 0 -2 -13 -29 -29 -61 -36 -72
-76 -181 -68 -188 3 -3 10 3 16 14 10 18 16 15 79 -48 73 -71 192 -140 243
-140 32 0 59 23 59 52 0 12 -40 61 -100 123 -55 57 -100 108 -100 114 0 7 7
26 16 42 11 22 20 29 32 24 108 -44 228 -66 286 -51 39 10 71 67 120 216 81
247 135 547 136 746 0 74 -11 187 -34 345 -77 526 -72 715 18 770 27 17 28 19
9 19 -12 0 -24 8 -28 19 -10 34 -94 102 -168 137 -92 43 -215 74 -336 82 l-96
7 48 29 c106 63 287 102 432 93 256 -17 461 -138 601 -354 30 -46 54 -85 54
-88 0 -7 -58 -6 -114 1 l-46 7 0 46 c-1 42 -2 44 -15 27 -14 -18 -16 -18 -33
-3 -30 27 -35 20 -13 -19 12 -19 21 -37 21 -40 0 -3 -71 -3 -157 1 -251 9
-153 -12 211 -45 177 -16 368 -32 426 -35 58 -3 120 -8 138 -11 l32 -5 -25
-33 c-13 -18 -42 -70 -64 -117 -78 -167 -127 -357 -160 -618 l-17 -136 -100 1
c-54 0 -192 4 -305 9 -140 5 -211 5 -224 -2 -15 -9 1 -12 71 -18 49 -3 171
-15 271 -26 222 -23 236 -23 285 -2 28 12 38 23 38 40 0 16 9 27 34 37 31 13
34 19 41 68 25 192 99 447 158 546 l32 53 7 -38 c15 -80 20 -787 9 -1183 -21
-750 -42 -1185 -58 -1201 -9 -9 -79 -9 -270 0 -659 30 -1840 148 -2163 216
-146 31 -140 11 -140 442 0 191 -3 379 -7 417 -13 140 -23 24 -30 -349 l-6
-374 -53 -21 c-29 -12 -60 -30 -69 -40 -16 -18 -15 -19 17 -36 36 -19 225 -62
404 -94 476 -83 2018 -223 2295 -208 72 3 78 6 184 73 61 38 236 152 390 254
154 102 330 219 390 258 142 93 190 135 182 156 -7 18 -66 37 -119 37 l-38 0
0 558 c-1 553 -10 855 -27 901 -6 15 -9 -273 -9 -750 1 -728 0 -777 -17 -827
-18 -51 -23 -56 -148 -140 -71 -48 -240 -163 -377 -255 -251 -170 -293 -190
-324 -159 -9 9 -7 124 6 454 34 846 40 1529 16 1833 -5 60 -7 112 -4 114 7 7
55 -42 82 -84 14 -22 40 -80 58 -130 29 -81 35 -91 62 -99 23 -6 33 -16 37
-37 9 -40 25 -47 25 -11 0 46 -47 199 -90 290 -43 92 -116 199 -156 231 l-25
20 23 14 c13 8 72 40 133 72 146 77 495 277 569 326 32 21 60 39 62 39 2 0 32
-42 67 -92 114 -164 177 -315 177 -421 0 -96 -13 -106 -472 -348 -220 -116
-284 -157 -270 -171 8 -8 48 10 139 59 70 39 187 101 258 138 193 101 339 191
375 231 35 41 35 42 -7 184 -47 159 -125 299 -223 401 -44 46 -53 51 -111 59
-35 5 -163 14 -284 20 -210 10 -335 19 -1240 90 -527 41 -830 60 -942 60 l-93
0 -248 -166z m789 48 c-7 -2 -18 1 -23 6 -8 8 -4 9 13 5 13 -4 18 -8 10 -11z
m136 2 c-3 -3 -12 -4 -19 -1 -8 3 -5 6 6 6 11 1 17 -2 13 -5z m1546 -81 c-7
-2 -19 -2 -25 0 -7 3 -2 5 12 5 14 0 19 -2 13 -5z m-1082 -100 c13 -16 12 -17
-3 -4 -17 13 -22 21 -14 21 2 0 10 -8 17 -17z M1235 4505 c-24 -24 -32 -60
-17 -80 10 -14 147 -134 199 -174 78 -60 203 -112 203 -84 0 3 -11 30 -25 59
-20 42 -47 71 -138 147 -61 52 -125 109 -141 126 -36 37 -49 39 -81 6z m238
-185 c54 -42 68 -60 48 -60 -21 0 -262 220 -255 232 3 5 38 -22 77 -59 40 -37
98 -88 130 -113z m97 -112 c0 -5 -7 -8 -15 -8 -15 0 -20 21 -8 33 7 7 23 -11
23 -25z M5557 3482 c-20 -21 -37 -40 -37 -43 0 -13 352 -354 369 -357 23 -4
91 70 91 99 0 29 -31 70 -129 173 -89 91 -175 166 -193 166 -6 0 -8 -10 -4
-24 4 -16 0 -29 -14 -41 -19 -17 -27 -45 -13 -45 4 0 17 10 29 21 14 13 29 19
40 15 16 -6 15 -8 -1 -26 -22 -25 -14 -36 15 -20 16 9 25 9 36 0 12 -11 10
-17 -11 -42 -43 -51 -28 -61 23 -14 31 28 58 11 54 -34 -2 -29 -1 -31 13 -20
14 11 19 10 38 -8 l21 -22 -22 -23 c-12 -13 -22 -26 -22 -30 0 -13 23 -7 42
10 17 15 19 15 38 -2 11 -10 20 -26 20 -35 0 -17 -39 -60 -54 -60 -13 0 -326
313 -326 326 0 6 7 17 16 24 19 17 37 50 26 50 -4 0 -25 -17 -45 -38z M2615
3130 c-13 -21 5 -25 121 -28 128 -4 157 11 42 22 -40 4 -92 9 -114 12 -27 4
-44 2 -49 -6z M5812 3024 c-29 -20 -57 -73 -44 -86 12 -12 72 56 72 82 0 24 0
24 -28 4z M5890 3015 c0 -25 28 -85 39 -85 14 0 14 29 0 69 -11 32 -39 43 -39
16z M1170 2839 c0 -15 71 -42 82 -31 6 6 1 16 -13 26 -26 18 -69 22 -69 5z
M1264 2742 c-6 -4 -19 -22 -29 -41 -14 -28 -14 -35 -3 -42 17 -11 57 37 58 69
0 23 -7 27 -26 14z M2573 1817 c-32 -21 -48 -45 -39 -55 7 -7 98 52 98 63 -1
18 -26 15 -59 -8z M2662 1755 c-10 -19 -5 -52 11 -72 16 -21 26 -4 20 35 -7
46 -18 59 -31 37z"/>
</g>
</svg>
